<svg xmlns="http://www.w3.org/2000/svg" xmlns:xlink="http://www.w3.org/1999/xlink" width="278" height="257" viewBox="0 0 278 257">
  <defs>
    <clipPath id="clip-black_logo">
      <rect width="278" height="257"/>
    </clipPath>
  </defs>
  <g id="black_logo" data-name="black logo" clip-path="url(#clip-black_logo)">
    <g id="Group_236" data-name="Group 236" transform="translate(-257.203 -522.661)">
      <text id="ahay" transform="translate(337.475 686.848)" font-size="84" font-family="InkFree, Ink Free"><tspan x="0" y="0">ahay</tspan></text>
      <g id="Group_6" data-name="Group 6" transform="translate(282.93 587.474)">
        <path id="Path_11" data-name="Path 11" d="M132.468,245.5a4.934,4.934,0,0,1,3.964-.989c.277.065.719.169.8.395.171.472-1.355,1.138-2.8,1.661Z" transform="translate(-107.187 -195.739)"/>
        <path id="Path_12" data-name="Path 12" d="M135.158,246.9c.6-.339,3.235-1.772,5.154-1.07.186.068.475.178.523.352.141.508-1.874,1.091-3.564,1.5Z" transform="translate(-107.294 -195.788)"/>
        <path id="Path_13" data-name="Path 13" d="M138.1,247.953c.369.1,3.845,1.015,5.088.4.261-.13.855-.423.813-.9a.665.665,0,0,0-.1-.295C143.7,246.872,142.819,246.522,138.1,247.953Z" transform="translate(-107.411 -195.838)"/>
        <path id="Path_15" data-name="Path 15" d="M154.475,263.776a4.938,4.938,0,0,1-3.254-2.47c-.123-.257-.318-.666-.194-.872.261-.429,1.735.344,3.046,1.139Z" transform="translate(-107.924 -196.372)"/>
        <path id="Path_16" data-name="Path 16" d="M153.858,260.773c-.639-.254-3.409-1.411-4.062-3.347-.063-.188-.159-.482-.054-.629.308-.428,2.025.778,3.4,1.84Z" transform="translate(-107.873 -196.229)"/>
        <path id="Path_17" data-name="Path 17" d="M152.823,257.808c-.154-.349-1.619-3.633-2.876-4.216-.264-.123-.866-.4-1.213-.069a.689.689,0,0,0-.166.264C148.473,254.123,148.752,255.029,152.823,257.808Z" transform="translate(-107.827 -196.096)"/>
        <g id="Group_5" data-name="Group 5" transform="translate(0)">
          <path id="Path_10" data-name="Path 10" d="M152.274,201.658c.035-.071-9.63-9.413-22.761-7.737a27.19,27.19,0,0,0-21.857,17.028c-4.945,13.246,3.159,26.182,10.393,32.045a34.905,34.905,0,0,0,17.113,6.974,41.964,41.964,0,0,0,4.525.053c2.881-.075,5.707-.166,5.759-1.1a.859.859,0,0,0-.217-.525c-.923-1.269-3.411-.831-6.459-1.265a23.416,23.416,0,0,1-5.588-1.675c-3.018-1.352-6.837-4-6.563-5.3.343-1.622,6.8.175,7.771-2.4a1.568,1.568,0,0,0-.146-1.552c-.508-.5-1.468-.066-2.778.1-2.726.346-3.706-.883-7.4-1.014a16.744,16.744,0,0,0-3.214.2,20.691,20.691,0,0,1-1.932-1.528,23.354,23.354,0,0,1-2.195-2.3,21.6,21.6,0,0,1-4.7-18.38c1.931-10.208,11.3-16.841,19.313-18.148C142.561,193.3,152.239,201.728,152.274,201.658Z" transform="translate(-106.138 -193.72)"/>
          <path id="Path_14" data-name="Path 14" d="M107.5,283.918a24.723,24.723,0,0,0,6.742,13.238c6.769,6.619,18.395,8.7,28.028,5.069,12.739-4.8,18.426-18.235,18.468-28.175a34.914,34.914,0,0,0-5.285-17.708,41.771,41.771,0,0,0-2.794-3.559c-1.863-2.2-3.7-4.345-4.463-3.8a.858.858,0,0,0-.275.5c-.411,1.514,1.49,3.179,3.061,5.826a23.409,23.409,0,0,1,2.194,5.406c.837,3.2,1.167,7.835-.016,8.433-1.479.749-4.126-5.412-6.742-4.55-.413.136-1.06.524-1.118,1.085-.073.711.868,1.186,1.819,2.1,1.977,1.908,1.632,3.442,3.846,6.4a16.742,16.742,0,0,0,2.166,2.381,20.683,20.683,0,0,1,.02,2.463h0s-.128,1.617-.416,3.15a27.5,27.5,0,0,1-5.031,11.174,23.86,23.86,0,0,1-14.832,8.09c-.828.111-10.735,1.289-18.141-5.148A24.582,24.582,0,0,1,107.5,283.918Z" transform="translate(-106.192 -195.917)"/>
        </g>
      </g>
    </g>
  </g>
</svg>
