<svg xmlns="http://www.w3.org/2000/svg" width="64" height="64" viewBox="0 0 64 64">
  <g id="Group_177" data-name="Group 177" transform="translate(-107 -187)">
    <g id="indian-wedding-food" transform="translate(107 187)" fill="none" stroke-dasharray="3">
      <path d="M0,0H64V64H0Z" stroke="none"/>
      <path d="M 0 0 L 3 0 L 3 1.299999237060547 L 1.299999237060547 1.299999237060547 L 1.299999237060547 4 L 0 4 L 0 0 Z M 6 0 L 9 0 L 9 1.299999237060547 L 6 1.299999237060547 L 6 0 Z M 12 0 L 15 0 L 15 1.299999237060547 L 12 1.299999237060547 L 12 0 Z M 18 0 L 21 0 L 21 1.299999237060547 L 18 1.299999237060547 L 18 0 Z M 24 0 L 27 0 L 27 1.299999237060547 L 24 1.299999237060547 L 24 0 Z M 30 0 L 33 0 L 33 1.299999237060547 L 30 1.299999237060547 L 30 0 Z M 36 0 L 39 0 L 39 1.299999237060547 L 36 1.299999237060547 L 36 0 Z M 42 0 L 45 0 L 45 1.299999237060547 L 42 1.299999237060547 L 42 0 Z M 48 0 L 51 0 L 51 1.299999237060547 L 48 1.299999237060547 L 48 0 Z M 54 0 L 57 0 L 57 1.299999237060547 L 54 1.299999237060547 L 54 0 Z M 60 0 L 63 0 L 63 1.299999237060547 L 60 1.299999237060547 L 60 0 Z M 62.70000076293945 2 L 64 2 C 64 2 64 5 64 5 L 62.70000076293945 5 L 62.70000076293945 2 Z M 62.70000076293945 8 L 64 8 C 64 8 64 11 64 11 L 62.70000076293945 11 L 62.70000076293945 8 Z M 62.70000076293945 14 L 64 14 C 64 14 64 17 64 17 L 62.70000076293945 17 L 62.70000076293945 14 Z M 62.70000076293945 20 L 64 20 C 64 20 64 23 64 23 L 62.70000076293945 23 L 62.70000076293945 20 Z M 62.70000076293945 26 L 64 26 C 64 26 64 29 64 29 L 62.70000076293945 29 L 62.70000076293945 26 Z M 62.70000076293945 32 L 64 32 C 64 32 64 35 64 35 L 62.70000076293945 35 L 62.70000076293945 32 Z M 62.70000076293945 38 L 64 38 C 64 38 64 41 64 41 L 62.70000076293945 41 L 62.70000076293945 38 Z M 62.70000076293945 44 L 64 44 C 64 44 64 47 64 47 L 62.70000076293945 47 L 62.70000076293945 44 Z M 62.70000076293945 50 L 64 50 C 64 50 64 53 64 53 L 62.70000076293945 53 L 62.70000076293945 50 Z M 62.70000076293945 56 L 64 56 C 64 56 64 59 64 59 L 62.70000076293945 59 L 62.70000076293945 56 Z M 62.70000076293945 62 L 64 62 C 64 62 64 64 64 64 L 62.70000076293945 64 L 62.70000076293945 62 Z M 57 62.70000076293945 L 60 62.70000076293945 L 60 64 C 60 64 57 64 57 64 L 57 62.70000076293945 Z M 51 62.70000076293945 L 54 62.70000076293945 L 54 64 C 54 64 51 64 51 64 L 51 62.70000076293945 Z M 45 62.70000076293945 L 48 62.70000076293945 L 48 64 C 48 64 45 64 45 64 L 45 62.70000076293945 Z M 39 62.70000076293945 L 42 62.70000076293945 L 42 64 C 42 64 39 64 39 64 L 39 62.70000076293945 Z M 33 62.70000076293945 L 36 62.70000076293945 L 36 64 C 36 64 33 64 33 64 L 33 62.70000076293945 Z M 27 62.70000076293945 L 30 62.70000076293945 L 30 64 C 30 64 27 64 27 64 L 27 62.70000076293945 Z M 21 62.70000076293945 L 24 62.70000076293945 L 24 64 C 24 64 21 64 21 64 L 21 62.70000076293945 Z M 15 62.70000076293945 L 18 62.70000076293945 L 18 64 C 18 64 15 64 15 64 L 15 62.70000076293945 Z M 9 62.70000076293945 L 12 62.70000076293945 L 12 64 C 12 64 9 64 9 64 L 9 62.70000076293945 Z M 3 62.70000076293945 L 6 62.70000076293945 L 6 64 C 6 64 3 64 3 64 L 3 62.70000076293945 Z M 0 61 L 1.299999237060547 61 L 1.299999237060547 64 L 0 64 L 0 61 Z M 0 55 L 1.299999237060547 55 L 1.299999237060547 58 L 0 58 L 0 55 Z M 0 49 L 1.299999237060547 49 L 1.299999237060547 52 L 0 52 L 0 49 Z M 0 43 L 1.299999237060547 43 L 1.299999237060547 46 L 0 46 L 0 43 Z M 0 37 L 1.299999237060547 37 L 1.299999237060547 40 L 0 40 L 0 37 Z M 0 31 L 1.299999237060547 31 L 1.299999237060547 34 L 0 34 L 0 31 Z M 0 25 L 1.299999237060547 25 L 1.299999237060547 28 L 0 28 L 0 25 Z M 0 19 L 1.299999237060547 19 L 1.299999237060547 22 L 0 22 L 0 19 Z M 0 13 L 1.299999237060547 13 L 1.299999237060547 16 L 0 16 L 0 13 Z M 0 7 L 1.299999237060547 7 L 1.299999237060547 10 L 0 10 L 0 7 Z" stroke="none" fill="#fbbc04"/>
    </g>
    <g id="Group_165" data-name="Group 165" transform="translate(163.042 157.612) rotate(45)">
      <line id="Line_12" data-name="Line 12" x2="11.816" y2="11.816" transform="translate(20.5 54.5)" fill="none" stroke="#fbbc04" stroke-linecap="round" stroke-width="2"/>
      <line id="Line_13" data-name="Line 13" x1="11.816" y2="11.816" transform="translate(20.5 54.5)" fill="none" stroke="#fbbc04" stroke-linecap="round" stroke-width="2"/>
    </g>
  </g>
</svg>
