<svg xmlns="http://www.w3.org/2000/svg" xmlns:xlink="http://www.w3.org/1999/xlink" width="428" height="926" viewBox="0 0 428 926">
  <defs>
    <clipPath id="clip-sc1">
      <rect width="428" height="926"/>
    </clipPath>
  </defs>
  <g id="sc1" clip-path="url(#clip-sc1)">
    <rect width="428" height="926" fill="#fff"/>
    <ellipse id="Ellipse_4" data-name="Ellipse 4" cx="387.5" cy="688.5" rx="387.5" ry="688.5" transform="translate(-173 -202)" fill="#b8d7ff"/>
    <g id="Group_103" data-name="Group 103" transform="translate(-103.891 -63.116)">
      <ellipse id="Ellipse_1" data-name="Ellipse 1" cx="273.343" cy="35.05" rx="273.343" ry="35.05" transform="translate(41.621 631.016)" fill="#e1e7ea"/>
      <g id="Group_102" data-name="Group 102" transform="translate(34.782 325)">
        <g id="Group_16" data-name="Group 16" transform="translate(395.445 111.987)">
          <g id="Group_12" data-name="Group 12" transform="translate(20.621)">
            <g id="Group_9" data-name="Group 9" transform="translate(16.475 65.257)">
              <path id="Path_18" data-name="Path 18" d="M699.445,258.4c-9.683-7.967-21.713-13.9-34.562-12.591-11.184,1.14-21.5,8.353-24.442,19.522a.5.5,0,0,0,.216.765c10.218,3.675,21.081,7.463,32.069,5.263,9.785-1.96,16.583-10.654,26.414-12.178C699.481,259.129,699.783,258.679,699.445,258.4Z" transform="translate(-565.916 -245.628)" fill="#9fceba"/>
              <path id="Path_19" data-name="Path 19" d="M661.428,305.709c-11.077-4.578-20.232-13.505-32.186-16-8.455-1.763-18.512.816-22.422,9.2a.452.452,0,0,0-.025.315.4.4,0,0,0-.14.344c.6,10.124,11.725,15.013,20.509,15.787,12.112,1.067,23.516-3.959,34.277-8.86A.457.457,0,0,0,661.428,305.709Z" transform="translate(-562.89 -249.541)" fill="#9fceba"/>
              <path id="Path_20" data-name="Path 20" d="M686.258,257.285a45.807,45.807,0,0,0-19.149-1.3.461.461,0,0,0-.094,0c-.079.014-.157.031-.236.045s-.171.019-.257.033a.466.466,0,0,0-.088.033c-2.436.436-4.86.932-7.275,1.468a42.633,42.633,0,0,0,6.142-8.5.455.455,0,0,0-.794-.446,41.777,41.777,0,0,1-6.82,9.21.41.41,0,0,0-.058.091c-5.175,1.2-10.288,2.638-15.332,4.291a53.741,53.741,0,0,0,4.119-9.649c.177-.559-.708-.775-.883-.218a52.591,52.591,0,0,1-4.434,10.18.43.43,0,0,0-.027.085,181.226,181.226,0,0,0-62.739,36.375,176.774,176.774,0,0,0-19.653,20.6c-.368.452.283,1.089.652.635a177.083,177.083,0,0,1,23.721-24.047.368.368,0,0,0,.387.2,113.561,113.561,0,0,1,27.454.483.362.362,0,0,0,.519.076q1.319.19,2.633.413a.457.457,0,0,0,.045.1,45.515,45.515,0,0,1,5.332,9.813c.213.541,1.089.29.874-.257a46.584,46.584,0,0,0-5.036-9.442,113.464,113.464,0,0,1,14.919,3.725.41.41,0,0,0,.1.119,28.145,28.145,0,0,1,6.213,6.628c.325.486,1.106.018.779-.47a28.876,28.876,0,0,0-5.423-6.026,78.246,78.246,0,0,0,19.6,1.292c.583-.036.563-.946-.025-.91a77.6,77.6,0,0,1-14.087-.426l7.989-3.927c.526-.258.053-1.037-.47-.779l-9.092,4.47c-.015.006-.021.017-.034.025-1.954-.279-3.9-.625-5.839-1.055a.378.378,0,0,0-.064,0,114.254,114.254,0,0,0-17.43-4.066,98.435,98.435,0,0,0,8.5-7.413c.42-.411-.234-1.045-.652-.635a97.05,97.05,0,0,1-9.085,7.871,114.144,114.144,0,0,0-27.2-.569,180.272,180.272,0,0,1,56.071-31.543c1.049-.361,2.108-.687,3.163-1.028a.466.466,0,0,0,.177.072,37.631,37.631,0,0,1,14.018,5.724c.488.326.93-.471.446-.794a38.215,38.215,0,0,0-12.979-5.542,176.968,176.968,0,0,1,18.75-4.756.418.418,0,0,0,.216.128,45.84,45.84,0,0,1,12.033,4.686.455.455,0,0,0,.446-.794,46.709,46.709,0,0,0-10.728-4.388c.44-.081.879-.164,1.319-.244a45.186,45.186,0,0,1,19.142,1.246C686.6,258.33,686.82,257.446,686.258,257.285Z" transform="translate(-558.57 -245.876)" fill="#80afa6"/>
            </g>
            <g id="Group_11" data-name="Group 11">
              <path id="Path_21" data-name="Path 21" d="M568.636,230.392c-5.8-10.872-16.629-17.509-27.494-22.508a.457.457,0,0,0-.552.715c7.813,9.548,5.789,22.631,8.214,33.945,1.823,8.5,7.408,17.491,16.854,18.255a.449.449,0,0,0,.505.062c1.01-.5,1.468-1.693,1.955-2.65C572.855,248.9,573,238.56,568.636,230.392Z" transform="translate(-540.469 -176.976)" fill="#9fceba"/>
              <path id="Path_22" data-name="Path 22" d="M667.755,173.93c-17.008.124-34.655-.56-50.772,5.783-12.819,5.046-24.068,14.639-27.448,28.444a30.032,30.032,0,0,0,2.186,21.051,1.967,1.967,0,0,0,.742,1.048,5.792,5.792,0,0,0,2.027.466.438.438,0,0,0,.347-.057A49.312,49.312,0,0,0,630.413,221c10.146-7.758,15.722-19.4,22.516-29.879,4.07-6.276,8.743-12.191,15.054-16.343A.458.458,0,0,0,667.755,173.93Z" transform="translate(-544.79 -173.93)" fill="#9fceba"/>
              <path id="Path_23" data-name="Path 23" d="M634.017,254.458c-12.593-1.914-25.954-3.463-38.277.717-8.329,2.825-15.876,8.219-20.11,15.943a20.438,20.438,0,0,0-1.951,3.661.381.381,0,0,0,.357.534,32.678,32.678,0,0,0,32.229,2.435c10.991-5.263,16.094-18.375,27.753-22.412C634.4,255.2,634.5,254.532,634.017,254.458Z" transform="translate(-543.449 -180.99)" fill="#9fceba"/>
              <g id="Group_10" data-name="Group 10" transform="translate(5.329 5.098)">
                <path id="Path_24" data-name="Path 24" d="M641.5,199.069a53.317,53.317,0,0,0-17.354-4.025,181.968,181.968,0,0,1,15.072-10.533c.5-.309.04-1.1-.459-.785-4.641,2.9-9.134,6.016-13.485,9.315l-.008-.025a.484.484,0,0,0,.053-.151,64.652,64.652,0,0,0,.431-12.9c-.038-.582-.949-.586-.91,0a64.652,64.652,0,0,1-.43,12.9.388.388,0,0,0,.011.09.263.263,0,0,0-.012.033c-.035.268-.072.535-.107.8a188.279,188.279,0,0,0-22.516,20.43,75.125,75.125,0,0,0-2.329-19.982.456.456,0,0,0-.878.241,74.236,74.236,0,0,1,2.29,20.493.46.46,0,0,0,.033.187,192.406,192.406,0,0,0-15.522,19.084,196.778,196.778,0,0,0-18.458,31.872,81.053,81.053,0,0,0-.364-14.474.364.364,0,0,0-.028-.224,81.051,81.051,0,0,0-1.806-9.9.433.433,0,0,0,.263-.189,49.032,49.032,0,0,0,4.539-8.8c.215-.544-.665-.781-.878-.241a47.717,47.717,0,0,1-4.189,8.163c-.385-1.474-.827-2.933-1.3-4.388a61.365,61.365,0,0,0-5.507-10.5.463.463,0,0,0,.113-.187,29.811,29.811,0,0,0,1.318-8.3.455.455,0,0,0-.91,0,28.954,28.954,0,0,1-1.147,7.549,66.666,66.666,0,0,0-9.921-11.606c-.43-.4-1.075.245-.644.643a67.654,67.654,0,0,1,12.333,15.3,35.127,35.127,0,0,0-9.711-1.373.455.455,0,0,0,0,.91,34.364,34.364,0,0,1,10.287,1.563c.02.005.036,0,.056.005.738,1.3,1.45,2.623,2.1,3.976v0a80.332,80.332,0,0,1,3.965,16.444,38.252,38.252,0,0,0-11.05-6.518c-.548-.209-.785.67-.242.877a36.973,36.973,0,0,1,11.45,6.97,80.35,80.35,0,0,1,.269,15.578.371.371,0,0,0,.241.4,193.245,193.245,0,0,0-11.606,33.891,184.279,184.279,0,0,0-5.118,41.258.455.455,0,0,0,.91,0A187.2,187.2,0,0,1,565.8,270.869a195.519,195.519,0,0,1,33.516-52.617.4.4,0,0,0,.393.252,61.472,61.472,0,0,1,21.147,3.594c.553.2.791-.682.242-.877a62.2,62.2,0,0,0-21.2-3.624q3.276-3.64,6.733-7.113a184.154,184.154,0,0,1,16.532-14.671.442.442,0,0,0,.244.09,52.646,52.646,0,0,1,17.862,4.044C641.8,200.172,642.037,199.292,641.5,199.069Z" transform="translate(-546.323 -179.531)" fill="#80afa6"/>
                <path id="Path_25" data-name="Path 25" d="M623.73,255.334a214.5,214.5,0,0,0-24.552,5.742q.787-2.371,1.575-4.743c.185-.557-.694-.8-.878-.242l-1.769,5.331a91.965,91.965,0,0,0-13.208,5.335,20.91,20.91,0,0,0,1.358-5.205c.074-.58-.837-.574-.91,0a19.453,19.453,0,0,1-1.712,5.867c-1.405.745-2.792,1.523-4.139,2.362a.5.5,0,0,0-.3.19,54.692,54.692,0,0,0-14.523,13.123c-.355.465.435.919.786.459a53.529,53.529,0,0,1,14.167-12.809,84.931,84.931,0,0,1,14.3,8.4c.474.345.929-.444.46-.785a84.839,84.839,0,0,0-13.854-8.181c1.166-.711,2.364-1.372,3.574-2.011a.352.352,0,0,0,.2-.1,99.451,99.451,0,0,1,20.594-7.7.4.4,0,0,0,.316.356,27.134,27.134,0,0,1,10.136,5.027c.454.36,1.1-.28.643-.643a28.22,28.22,0,0,0-9.864-5.067c5.949-1.535,11.98-2.729,17.848-3.825C624.547,256.1,624.3,255.227,623.73,255.334Z" transform="translate(-547.963 -186.34)" fill="#80afa6"/>
              </g>
            </g>
          </g>
          <g id="Group_15" data-name="Group 15" transform="translate(0 119.776)">
            <g id="Group_13" data-name="Group 13">
              <path id="Path_26" data-name="Path 26" d="M649.616,306.657,583.8,305.529l-65.984,2.6L584.6,327.875Z" transform="translate(-517.812 -305.529)" fill="#f9c495"/>
              <path id="Path_27" data-name="Path 27" d="M655.61,400.808l-37.453,4.032-7.363.792-32.083,3.459V309.837l32.083-1.292,7.363-.291,36.934-1.484Z" transform="translate(-523.283 -305.64)" fill="#f4a279"/>
              <path id="Path_28" data-name="Path 28" d="M621.323,308.4v96.587l-7.363.792V308.691Z" transform="translate(-526.45 -305.787)" fill="#e0856c"/>
              <path id="Path_29" data-name="Path 29" d="M573.235,409.235l-55.423-4.717V308.385l55.423,1.6Z" transform="translate(-517.812 -305.785)" fill="#ea8e6e"/>
            </g>
            <g id="Group_14" data-name="Group 14" transform="translate(62.294 29.905)">
              <path id="Path_30" data-name="Path 30" d="M650.244,357.992,586.4,365.385l-.141-22.053,63.989-4.947Z" transform="translate(-586.254 -338.386)" fill="#f7f2ed"/>
              <text id="CLOTHES" transform="matrix(0.995, -0.105, 0.105, 0.995, 1.254, 20.969)" fill="#42284c" font-size="12" font-family="Montserrat-Medium, Montserrat" font-weight="500"><tspan x="0" y="0">CLOTHES</tspan></text>
            </g>
          </g>
        </g>
        <g id="Group_28" data-name="Group 28" transform="translate(0 54.349)">
          <g id="Group_20" data-name="Group 20">
            <g id="Group_17" data-name="Group 17" transform="translate(0 53.919)">
              <path id="Path_31" data-name="Path 31" d="M151.873,198.225a.466.466,0,0,0,.178-.323c1.665-14.489-10.878-25.718-24.3-27.654-16.245-2.343-31.156,5.93-44.2,14.585a.459.459,0,0,0,.229.848c13.888.09,23.905,11.04,35.94,16.285a33.224,33.224,0,0,0,32.185-2.94A.481.481,0,0,0,151.873,198.225Z" transform="translate(-83.335 -169.844)" fill="#9fceba"/>
              <path id="Path_32" data-name="Path 32" d="M160.31,214.206a.437.437,0,0,0-.217-.252.4.4,0,0,0,.265-.633c-4.684-6.32-13.348-6.374-20.069-3.68-9.2,3.689-16.723,11.712-27.1,12.115a.459.459,0,0,0-.229.848c9.011,6.578,20.7,10.531,31.934,9.413,4.86-.483,9.851-2.232,13.005-6.14A12.224,12.224,0,0,0,160.31,214.206Z" transform="translate(-85.977 -173.268)" fill="#9fceba"/>
              <path id="Path_33" data-name="Path 33" d="M203.1,246.93A139.163,139.163,0,0,0,148.259,195.7a61.4,61.4,0,0,0,.035-11.539c-.053-.579-.964-.584-.91,0a61.4,61.4,0,0,1,0,11.074q-4.843-2.475-9.874-4.57c-.531-.22-1.065-.43-1.6-.643a.419.419,0,0,0,.021-.277,39.005,39.005,0,0,0-9.411-16.885c-.4-.427-1.046.218-.643.643a38.006,38.006,0,0,1,9.072,16.132,135.376,135.376,0,0,0-19.664-6.007.463.463,0,0,0-.049-.23,28.671,28.671,0,0,0-5.989-7.84c-.43-.4-1.075.245-.644.643a27.939,27.939,0,0,1,5.574,7.182c-.318-.069-.633-.144-.951-.21a.457.457,0,0,0-.122,0,45.169,45.169,0,0,0-17.742.395c-.572.127-.33,1.006.241.878a43.922,43.922,0,0,1,14.871-.745,39.6,39.6,0,0,0-6.755,3.893c-.471.339-.017,1.129.46.786a39.553,39.553,0,0,1,7.592-4.278.368.368,0,0,0,.2-.192c.4.061.8.115,1.194.187a.229.229,0,0,0,.025,0,134.288,134.288,0,0,1,17.935,5.1,39.3,39.3,0,0,0-12.011,6.976c-.447.379.2,1.02.643.643a38.09,38.09,0,0,1,12.52-7.075.421.421,0,0,0,.122-.071,138.251,138.251,0,0,1,15.854,7.088A24.236,24.236,0,0,0,135.26,203.4c-.419.411.225,1.055.643.644a23.3,23.3,0,0,1,13.67-6.582l0,0A139.232,139.232,0,0,1,167.8,209.126a70.8,70.8,0,0,0-14.763,2.214,34.173,34.173,0,0,1-7.09-5.276c-.421-.408-1.065.235-.643.643a35.062,35.062,0,0,0,6.5,4.951,71.4,71.4,0,0,0-9.635,3.437.433.433,0,0,0-.1,0,.378.378,0,0,0-.289-.213,22.347,22.347,0,0,1-8.14-3.315c-.491-.323-.947.464-.46.785a22.992,22.992,0,0,0,7.73,3.269,49.01,49.01,0,0,1-12.445,4.122.521.521,0,0,0-.075-.036,10.118,10.118,0,0,1-3.845-1.91c-.452-.363-1.1.277-.643.643a11.34,11.34,0,0,0,2.715,1.612,49.455,49.455,0,0,1-10.683.42c-.584-.04-.582.87,0,.91a49.853,49.853,0,0,0,9.345-.247,14.72,14.72,0,0,0-2.453,3.891c-.227.533.557,1,.786.46a14.11,14.11,0,0,1,2.973-4.442.447.447,0,0,0,.05-.077,50,50,0,0,0,9.966-2.532,23.216,23.216,0,0,0-3.235,7.877c-.12.572.757.816.877.242a22.586,22.586,0,0,1,3.851-8.695c1.126-.454,2.238-.946,3.334-1.483a.453.453,0,0,0,.125-.03,69.706,69.706,0,0,1,13-4.483,80.975,80.975,0,0,0-2.647,10.834c-.1.572.778.819.878.242a80.907,80.907,0,0,1,2.68-10.946.4.4,0,0,0-.028-.331,70.129,70.129,0,0,1,13.478-1.683,138.326,138.326,0,0,1,18.6,17.321,134.4,134.4,0,0,1,14.8,20.089A.456.456,0,0,0,203.1,246.93Z" transform="translate(-84.386 -170.103)" fill="#80afa6"/>
            </g>
            <g id="Group_19" data-name="Group 19" transform="translate(51.829)">
              <path id="Path_34" data-name="Path 34" d="M223.589,156.688a44.012,44.012,0,0,0-19.67-25.88.46.46,0,0,0-.668.514c2.582,9.9-4.853,19.062-3.812,29.05.9,8.643,5.9,16,11.426,22.415a.377.377,0,0,0,.334.144.468.468,0,0,0,.558.417C223.914,180.915,226.346,166.888,223.589,156.688Z" transform="translate(-145.586 -112.413)" fill="#9fceba"/>
              <path id="Path_35" data-name="Path 35" d="M180.332,123.685c-10.653-10.6-25.316-12.193-39.6-13.081a.46.46,0,0,0-.322.777,46.542,46.542,0,0,1,12.3,17.674c2.622,6.76,3.492,14.088,6.542,20.7,2.457,5.324,6.32,9.768,11.91,11.855,5.842,2.182,12.3,1.756,18.342.738a.452.452,0,0,0,.7-.236A39.228,39.228,0,0,0,180.332,123.685Z" transform="translate(-140.28 -110.603)" fill="#9fceba"/>
              <path id="Path_36" data-name="Path 36" d="M197.343,193.91c-9.933-4.313-20.318.753-30.491-1.49-.309-.068-.688.213-.56.56a34.214,34.214,0,0,0,45.059,19.659.475.475,0,0,0,.763-.456A25.442,25.442,0,0,0,197.343,193.91Z" transform="translate(-142.614 -117.925)" fill="#9fceba"/>
              <g id="Group_18" data-name="Group 18" transform="translate(3.355 2.004)">
                <path id="Path_37" data-name="Path 37" d="M205.952,188.085a.414.414,0,0,0,.057-.141c.587-3.125,1.034-6.266,1.36-9.415.017-.005.033,0,.05-.01A39.6,39.6,0,0,0,216.8,172.9c.456-.366-.191-1.007-.644-.643a38.682,38.682,0,0,1-8.674,5.238q.5-5.281.522-10.586a31.536,31.536,0,0,0,9.349-6.815c.4-.426-.24-1.07-.643-.643a30.852,30.852,0,0,1-8.695,6.437,117,117,0,0,0-.89-13.98c0-.019,0-.035,0-.056s-.013-.067-.018-.1c-.01-.077-.018-.154-.026-.231a57.424,57.424,0,0,0,3.169-9.391c.138-.569-.739-.812-.877-.242a56.4,56.4,0,0,1-2.615,8.052,80.368,80.368,0,0,0-5.6-17.638c-.24-.533-1.025-.071-.785.46a79.432,79.432,0,0,1,5.84,19.16c.4,3.207.652,6.424.784,9.641a26.624,26.624,0,0,0-9.192-5.966c-.546-.212-.783.667-.242.877a25.612,25.612,0,0,1,9.474,6.432q.169,5.724-.224,11.442a53.923,53.923,0,0,0-6.916-4.514c-.515-.28-.975.505-.46.786a52.678,52.678,0,0,1,7.168,4.7.452.452,0,0,0,.134.067,114.492,114.492,0,0,1-1.454,11.421,267.714,267.714,0,0,0-18.592-30.642.408.408,0,0,0,.026-.053,89.009,89.009,0,0,1,3.451-10.371c.219-.543-.661-.78-.877-.242a88.838,88.838,0,0,0-3.267,9.72c-.33-.465-.653-.935-.986-1.4A264.932,264.932,0,0,0,166.8,131.2a.408.408,0,0,0,.122-.309q-.115-7.006-.23-14.012a.455.455,0,0,0-.91,0L166,130.316q-1.327-1.461-2.673-2.9a.409.409,0,0,0-.046-.095,45.544,45.544,0,0,0-18.776-14.477c-.54-.226-.775.655-.242.877a44.326,44.326,0,0,1,16.59,12.1,24.622,24.622,0,0,0-7.136-1.943c-.581-.068-.576.843,0,.91a23.3,23.3,0,0,1,8.285,2.593.4.4,0,0,0,.074.022,263.709,263.709,0,0,1,17.867,21.1,40.4,40.4,0,0,0-13.77,2.687c-.541.207-.306,1.088.242.877a39.8,39.8,0,0,1,14.2-2.669,268.244,268.244,0,0,1,43.763,87.907,264.655,264.655,0,0,1,7.379,34.654c.083.577.96.331.877-.242A267.89,267.89,0,0,0,205.952,188.085Z" transform="translate(-143.967 -112.805)" fill="#80afa6"/>
                <path id="Path_38" data-name="Path 38" d="M218.309,215.323c-3.119-2.42-6.814-3.365-10.6-4.048a.362.362,0,0,0,0-.464,20.5,20.5,0,0,1-3.975-11.19c-.03-.582-.94-.586-.91,0a21.382,21.382,0,0,0,4,11.5c-2.408-.411-4.838-.755-7.168-1.339-.283-.071-.562-.154-.844-.229a.418.418,0,0,0-.437-.119,54.8,54.8,0,0,1-6.606-2.294.5.5,0,0,0-.041-.195,74.369,74.369,0,0,1-3.83-11.425.456.456,0,0,0-.878.242,75.665,75.665,0,0,0,3.612,10.876,56.379,56.379,0,0,1-11.652-7.009c-.456-.356-1.1.283-.643.644a59.115,59.115,0,0,0,6.448,4.384,43.125,43.125,0,0,0-5.587,1.092.456.456,0,0,0,.241.878,41.711,41.711,0,0,1,6.053-1.154.453.453,0,0,0,.35-.227,55.52,55.52,0,0,0,10.614,4.584c.289.09.585.169.88.25a10.067,10.067,0,0,0-2.632,2.806c-.312.5.475.955.786.46a9.074,9.074,0,0,1,3.043-2.961c6.429,1.512,13.86,1.489,19.141,5.586C218.123,216.321,218.772,215.682,218.309,215.323Z" transform="translate(-147.04 -120.206)" fill="#80afa6"/>
              </g>
            </g>
          </g>
          <g id="Group_27" data-name="Group 27" transform="translate(20.938 109.062)">
            <g id="Group_23" data-name="Group 23" transform="translate(0 69.652)">
              <g id="Group_21" data-name="Group 21">
                <path id="Path_39" data-name="Path 39" d="M106.917,308.085l65.821-1.128,65.984,2.6L171.933,329.3Z" transform="translate(-106.392 -306.957)" fill="#f9c495"/>
                <path id="Path_40" data-name="Path 40" d="M183.249,311.267v99.253l-40.311-4.341-7.454-.8-29.143-3.14.528-94.038,28.616,1.147,7.454.3Z" transform="translate(-106.34 -307.069)" fill="#f4a279"/>
                <path id="Path_41" data-name="Path 41" d="M145.814,406.292V309.76l-7.454-.3v96.031Z" transform="translate(-109.217 -307.182)" fill="#e0856c"/>
                <path id="Path_42" data-name="Path 42" d="M246.26,309.81v93.082l-20.579,2.885-8.064,1.129-26.777,3.759V311.412l26.777-.774,8.064-.237Z" transform="translate(-113.931 -307.213)" fill="#ea8e6e"/>
                <path id="Path_43" data-name="Path 43" d="M220.26,310.7v96.268l8.064-1.129V310.46Z" transform="translate(-116.574 -307.272)" fill="#c67163"/>
              </g>
              <g id="Group_22" data-name="Group 22" transform="translate(6.047 53.129)">
                <path id="Path_44" data-name="Path 44" d="M112.983,384.936l63.848,7.394.141-22.053-63.989-4.947Z" transform="translate(-112.983 -365.33)" fill="#f7f2ed"/>
              </g>
              <text id="DONATION" transform="matrix(0.998, 0.07, -0.07, 0.998, 12.101, 66.733)" fill="#422748" font-size="8" font-family="Montserrat-Medium, Montserrat" font-weight="500"><tspan x="0" y="0">DONATION</tspan></text>
            </g>
            <g id="Group_26" data-name="Group 26" transform="translate(18.413)">
              <g id="Group_24" data-name="Group 24">
                <path id="Path_45" data-name="Path 45" d="M182.463,230.43v72.8L151.308,302.1l-5.106-.182-19.2-.7-.437-69.063,19.632-.6,5.106-.164Z" transform="translate(-126.57 -230.43)" fill="#f4a279"/>
                <path id="Path_46" data-name="Path 46" d="M153.246,231.48v70.711l-5.106-.182V231.644Z" transform="translate(-128.508 -230.524)" fill="#e0856c"/>
                <path id="Path_47" data-name="Path 47" d="M230.357,231.95v69.263l-13,.619-8.191.391-21.189,1.01v-72.8l21.189.765,8.191.291Z" transform="translate(-132.087 -230.43)" fill="#ea8e6e"/>
                <path id="Path_48" data-name="Path 48" d="M219.451,301.908V231.561l-8.192-.291V302.3Z" transform="translate(-134.178 -230.505)" fill="#c67163"/>
              </g>
              <g id="Group_25" data-name="Group 25" transform="translate(3.913 34.664)">
                <path id="Path_49" data-name="Path 49" d="M130.87,288.116l46.838,1.436.1-21.036-46.942,1.23Z" transform="translate(-130.87 -268.516)" fill="#f7f2ed"/>
              </g>
              <text id="CLOTHES-2" data-name="CLOTHES" transform="translate(5.004 49.505)" fill="#422748" font-size="9" font-family="Montserrat-Medium, Montserrat" font-weight="500"><tspan x="0" y="0">CLOTHES</tspan></text>
            </g>
          </g>
        </g>
        <g id="Group_101" data-name="Group 101" transform="translate(91.439)">
          <g id="Group_63" data-name="Group 63" transform="translate(0 14.917)">
            <path id="Path_50" data-name="Path 50" d="M284.288,148.173v-3.535a11.224,11.224,0,0,1,8.032,6.09c3.328,6.338,4.939,41.072,7.163,42.6s22.215,5.259,22.215,5.259l2.948,11.979s-35.6,5.785-40.661-.632S284.288,148.173,284.288,148.173Z" transform="translate(-192.605 -74.229)" fill="#e5ddd8"/>
            <path id="Path_51" data-name="Path 51" d="M246.817,137.84s-14.768,2.314-17.155,7.515,6.585,53.492,6.585,53.492l47.062.555s-.867-50.362-2.357-54.086c-.949-2.373-10.014-3.766-10.014-3.766Z" transform="translate(-187.883 -73.618)" fill="#f7f2ed"/>
            <path id="Path_52" data-name="Path 52" d="M257.273,106.732" transform="translate(-190.4 -70.823)" fill="none" stroke="#fff" stroke-miterlimit="10" stroke-width="1"/>
            <g id="Group_31" data-name="Group 31" transform="translate(44.198 65.167)">
              <g id="Group_29" data-name="Group 29">
                <path id="Path_53" data-name="Path 53" d="M232.36,184.057s8.822-9.987,10.527-17.89h36.958s4.134,7.794,4.505,12.575c.4,5.173,1.236,23.2,1.236,23.2H233.71Z" transform="translate(-232.36 -141.33)" fill="#5d808f"/>
                <path id="Path_54" data-name="Path 54" d="M249.79,163.715a115.427,115.427,0,0,0-6.762-24.837,15.912,15.912,0,0,0-5.319,1.6,144.309,144.309,0,0,1,5.658,23.239Z" transform="translate(-232.841 -138.878)" fill="#5d808f"/>
                <path id="Path_55" data-name="Path 55" d="M277.482,163.977c.5.087-.115-12.32-2.43-22.183a20.85,20.85,0,0,1,6.262,1.421c1.893,5.6,2.027,12.934,2.366,20.764Z" transform="translate(-236.195 -139.14)" fill="#5d808f"/>
              </g>
              <g id="Group_30" data-name="Group 30" transform="translate(19.361 34.068)">
                <path id="Path_56" data-name="Path 56" d="M253.632,176.309H276.7s1.166,11.869.043,13.956-8.595,5.749-9.558,5.909-12.474-4.166-12.955-5.77S253.632,176.309,253.632,176.309Z" transform="translate(-253.632 -176.309)" fill="none" stroke="#446177" stroke-miterlimit="10" stroke-width="1"/>
                <line id="Line_1" data-name="Line 1" x2="23.318" transform="translate(0.059 3.895)" fill="none" stroke="#446177" stroke-miterlimit="10" stroke-width="1"/>
              </g>
            </g>
            <g id="Group_42" data-name="Group 42" transform="translate(0 125.785)">
              <g id="Group_35" data-name="Group 35" transform="translate(80.918 148.398)">
                <path id="Path_57" data-name="Path 57" d="M300.665,388.444s-7.531,10.936-27.961,7.21l11.861-13.426Z" transform="translate(-272.704 -369.755)" fill="#547d87"/>
                <g id="Group_34" data-name="Group 34" transform="translate(4.232)">
                  <g id="Group_32" data-name="Group 32">
                    <path id="Path_58" data-name="Path 58" d="M295.268,401.857,280.4,403.679l-.556-5.874-2.131-22.4-.355-3.771,15.282-2.933.874-.173,1.184,22.523Z" transform="translate(-277.353 -368.524)" fill="#fcbfa9"/>
                    <path id="Path_59" data-name="Path 59" d="M294.728,391.047a16.6,16.6,0,0,0-14.854,6.758l-2.132-22.4,14.928-6.7.875-.173Z" transform="translate(-277.388 -368.524)" fill="#ef9c9c"/>
                  </g>
                  <g id="Group_33" data-name="Group 33" transform="translate(0.911 30.911)">
                    <path id="Path_60" data-name="Path 60" d="M315.949,409.936s0,.055-.009.146c-.592,5.492-34.1,13.106-36.676,11.084-.965-.756-1.047-2.942-.774-5.383a59.3,59.3,0,0,1,1.994-9.053A52.449,52.449,0,0,1,295.258,403c3.315-.364,16.939-2.267,20.073,4.563h.009A7.242,7.242,0,0,1,315.949,409.936Z" transform="translate(-278.355 -402.486)" fill="#422748"/>
                    <path id="Path_61" data-name="Path 61" d="M315.949,410.265s0,.055-.009.146c-.592,5.492-34.1,13.105-36.676,11.084-.965-.756-1.047-2.942-.774-5.383,2.832-1.94,8.261-2.386,9.809-2.6,2.514-.346,14.717-7.268,21.384-7.359a8.2,8.2,0,0,1,5.647,1.739h.009A7.243,7.243,0,0,1,315.949,410.265Z" transform="translate(-278.355 -402.816)" fill="#634466"/>
                    <path id="Path_62" data-name="Path 62" d="M316.018,410.422s0,.055-.009.146c-.592,5.492-34.1,13.105-36.676,11.084-1.466-5.527,5.1-4.55,10.263-6.464,2.624-.974,14.389-5.747,17.693-6.8C313.027,406.569,316.018,410.422,316.018,410.422Z" transform="translate(-278.424 -402.972)" fill="#908791"/>
                  </g>
                </g>
              </g>
              <g id="Group_38" data-name="Group 38" transform="translate(0 133.757)">
                <g id="Group_36" data-name="Group 36" transform="translate(0 22.857)">
                  <path id="Path_63" data-name="Path 63" d="M207.543,410.988a3.682,3.682,0,0,1-1.564,1.943c-6.4,3.588-23.847-29.124-22.051-32.2a4.328,4.328,0,0,1,1.381-1.393c2.578-1.721,7.87-1.788,7.87-1.788l9.953,4.514S210.479,403.735,207.543,410.988Z" transform="translate(-183.799 -377.551)" fill="#422748"/>
                  <path id="Path_64" data-name="Path 64" d="M207.543,411.164a3.682,3.682,0,0,1-1.564,1.943c-6.4,3.588-23.847-29.124-22.051-32.2a4.327,4.327,0,0,1,1.381-1.393c1.14,4.429,4.808,12.379,9.4,19.387C200.334,407.494,203.277,411.328,207.543,411.164Z" transform="translate(-183.799 -377.727)" fill="#634466"/>
                </g>
                <g id="Group_37" data-name="Group 37" transform="translate(9.38)">
                  <path id="Path_65" data-name="Path 65" d="M205.027,385.552A16.179,16.179,0,0,1,194.1,375.295l4.156-4.188,15.845-15.982,2.669-2.687,12.038,9.861.693.561L212.963,378.19Z" transform="translate(-194.105 -352.438)" fill="#fcbfa9"/>
                  <path id="Path_66" data-name="Path 66" d="M213.373,378.455c-3.464.684-9.7-2.071-14.7-7.083l15.845-15.982,14.706,7.174.693.561Z" transform="translate(-194.515 -352.703)" fill="#ef9c9c"/>
                </g>
              </g>
              <g id="Group_41" data-name="Group 41" transform="translate(14.695)">
                <path id="Path_67" data-name="Path 67" d="M231.159,205.479s-1.994,87.259-6.6,106.111c-2.566,10.5-20.589,34.813-20.589,34.813,4.094,8.916,11.057,14.926,21.4,17.515,0,0,21.07-26.289,25.167-45.625,2.751-12.986,9.5-54.54,9.5-54.54L266.9,371.595l25.587-3.4-9.454-162.712Z" transform="translate(-200.306 -205.479)" fill="#5d808f"/>
                <g id="Group_39" data-name="Group 39" transform="translate(6.832 19.629)">
                  <path id="Path_68" data-name="Path 68" d="M233.858,227.045s-1.308,75.718-6.491,90.006c-4.587,12.643-19.915,32.111-19.915,32.111" transform="translate(-207.451 -227.045)" fill="none" stroke="#446177" stroke-linecap="round" stroke-linejoin="round" stroke-width="1"/>
                  <path id="Path_69" data-name="Path 69" d="M241.345,227.763s1.893,14.33-5.011,13.494" transform="translate(-210.046 -227.109)" fill="none" stroke="#446177" stroke-linecap="round" stroke-linejoin="round" stroke-width="1"/>
                </g>
                <g id="Group_40" data-name="Group 40" transform="translate(62.328 20.632)">
                  <line id="Line_2" data-name="Line 2" x1="0.573" y1="23.546" fill="none" stroke="#446177" stroke-linecap="round" stroke-linejoin="round" stroke-width="1"/>
                  <path id="Path_70" data-name="Path 70" d="M273.833,228.148s2.427,12.972-5.039,13.781" transform="translate(-268.459 -228.148)" fill="none" stroke="#446177" stroke-linecap="round" stroke-linejoin="round" stroke-width="1"/>
                </g>
                <path id="Path_71" data-name="Path 71" d="M271.537,380.778c10-5.4,19.26-7.4,27.836-6.348l1.187,13.289c-7.036-2.137-19.357,1.369-27.961,7.21Z" transform="translate(-206.377 -220.633)" fill="#77a9aa"/>
                <path id="Path_72" data-name="Path 72" d="M231.428,372.106c-10.722-1.711-18.384-8.755-24.108-19.182l-7.375,7.835c4.808,10.513,13.378,17.909,24.39,23.281Z" transform="translate(-199.945 -218.725)" fill="#77a9aa"/>
                <path id="Path_73" data-name="Path 73" d="M234.535,226.535s25.85,3.546,51.715-.593" transform="translate(-203.052 -207.317)" fill="none" stroke="#446177" stroke-linecap="round" stroke-linejoin="round" stroke-width="1"/>
              </g>
            </g>
            <g id="Group_51" data-name="Group 51" transform="translate(46.323)">
              <path id="Path_74" data-name="Path 74" d="M239.461,82.369s-5.507,14.7-1.413,28.486c3.485,11.734,11.694,23.145,31.33,21.512,14.2-1.18,19.557-24.226,15.974-36.65Z" transform="translate(-234.86 -68.635)" fill="#422748"/>
              <g id="Group_43" data-name="Group 43" transform="translate(11.877 44.703)">
                <path id="Path_75" data-name="Path 75" d="M270.878,139.363s.48,12.955-7.865,12.955c-8.687,0-15.269-16.206-15.269-16.206,3.844-.7,5.237-5.911,5.665-10.8.127-1.412.182-2.8.182-4.035.018-2.814-.191-4.881-.191-4.881l15.437,9.463c-.036.146-.064.291-.091.437a36.891,36.891,0,0,0-.811,6.5C267.738,139.512,270.878,139.363,270.878,139.363Z" transform="translate(-247.744 -116.394)" fill="#fcbfa9"/>
                <path id="Path_76" data-name="Path 76" d="M269.4,125.857c-.036.146-.064.291-.091.437a39.087,39.087,0,0,0-.811,6.5c-4.881,1.1-11.466-2.9-14.526-7.486.127-1.412.182-2.8.182-4.035.018-2.814-.191-4.881-.191-4.881Z" transform="translate(-248.302 -116.394)" fill="#ef9c9c"/>
              </g>
              <g id="Group_44" data-name="Group 44" transform="translate(31.595 63.728)">
                <path id="Path_77" data-name="Path 77" d="M287.386,167.825a15.287,15.287,0,0,1-11.393,10.492,9.978,9.978,0,0,0,.573-12.45c-4.781-6.94-8.716-9.618-6.548-28.443l2.313-.127a12.289,12.289,0,0,1,1.968.191c3.406.565,10.273,2.814,12.613,11.795C289.089,157.606,288.8,163.563,287.386,167.825Z" transform="translate(-269.408 -137.297)" fill="#422748"/>
                <path id="Path_78" data-name="Path 78" d="M287.869,167.844c-.483-23.606-13.087-30.337-13.087-30.337,3.406.565,10.273,2.814,12.613,11.795C289.572,157.625,289.281,163.581,287.869,167.844Z" transform="translate(-269.89 -137.316)" fill="#57385b"/>
              </g>
              <g id="Group_50" data-name="Group 50">
                <path id="Path_79" data-name="Path 79" d="M279.727,110.829c.439,2.974,3.821,4.938,7.553,4.386s6.4-3.409,5.963-6.382-3.821-4.938-7.553-4.386S279.288,107.855,279.727,110.829Z" transform="translate(-238.736 -70.61)" fill="#ef9c9c"/>
                <g id="Group_45" data-name="Group 45" transform="translate(6.901 3.54)">
                  <path id="Path_80" data-name="Path 80" d="M242.371,98.356c.772,13.524,11.565,25.342,23.784,26.145s17.691-9.842,18.579-23.359a60.951,60.951,0,0,0-.266-13.07c-.2-1.333-.878-17.771-20.833-16.867C251.4,71.76,241.183,77.536,242.371,98.356Z" transform="translate(-242.277 -71.169)" fill="#fcbfa9"/>
                  <path id="Path_81" data-name="Path 81" d="M250.013,102.726l2.325-3.823s16.417-6.682,19.4-15.374c0,0,10.815,8.333,13.332,12.994l-.262-1.506s-6.629-17.985-12.352-18.687S250.119,90.29,249.21,94.768A13.464,13.464,0,0,0,250.013,102.726Z" transform="translate(-242.876 -71.63)" fill="#ef9c9c"/>
                </g>
                <g id="Group_46" data-name="Group 46" transform="translate(2.694)">
                  <path id="Path_82" data-name="Path 82" d="M283.777,105.251a32.237,32.237,0,0,0-.045-11.048,81.643,81.643,0,0,0-13.5-15.637c-.511-.465-2.022,10.81-20.118,18.943l-1.986,7.431-8.779-2.541S233,84.021,244.862,73.312a25.574,25.574,0,0,1,3.224-2.487,22.069,22.069,0,0,1,20.665-1.758s8.925-3.306,17.2,8.506a19.2,19.2,0,0,1,3.752,10.965C289.806,96.4,284.78,102.619,283.777,105.251Z" transform="translate(-237.655 -67.279)" fill="#422748"/>
                  <path id="Path_83" data-name="Path 83" d="M290.736,88.539c-5.648-17.269-19.308-14.987-19.308-14.987-6.715-4.985-15.737-4.666-22.313-2.727a22.069,22.069,0,0,1,20.665-1.758s8.925-3.306,17.2,8.506A19.2,19.2,0,0,1,290.736,88.539Z" transform="translate(-238.684 -67.279)" fill="#57385b"/>
                </g>
                <path id="Path_84" data-name="Path 84" d="M235.088,104.021c-1.239,2.739.543,6.22,3.98,7.775s7.229.6,8.467-2.143-.542-6.219-3.98-7.775S236.328,101.282,235.088,104.021Z" transform="translate(-234.695 -70.32)" fill="#fcbfa9"/>
                <g id="Group_49" data-name="Group 49" transform="translate(14.122 28.249)">
                  <g id="Group_47" data-name="Group 47" transform="translate(9.199)">
                    <path id="Path_85" data-name="Path 85" d="M264.806,109.186a1.331,1.331,0,1,0,1.415-1.426A1.428,1.428,0,0,0,264.806,109.186Z" transform="translate(-260.72 -99.164)" fill="#434851"/>
                    <path id="Path_86" data-name="Path 86" d="M281.7,109.186a1.331,1.331,0,1,0,1.415-1.426A1.428,1.428,0,0,0,281.7,109.186Z" transform="translate(-262.237 -99.164)" fill="#434851"/>
                    <path id="Path_87" data-name="Path 87" d="M266.554,99.125a5.49,5.49,0,0,0-6.237.349" transform="translate(-260.317 -98.316)" fill="none" stroke="#40294d" stroke-linecap="round" stroke-linejoin="round" stroke-width="1"/>
                    <path id="Path_88" data-name="Path 88" d="M286.536,100.348c-1.183-1.4-4.616-1.979-6.294-.821" transform="translate(-262.107 -98.369)" fill="none" stroke="#40294d" stroke-linecap="round" stroke-linejoin="round" stroke-width="1"/>
                    <path id="Path_89" data-name="Path 89" d="M275.423,107.757a9.557,9.557,0,0,1-.643,6.791" transform="translate(-261.616 -99.164)" fill="none" stroke="#bf5665" stroke-linecap="round" stroke-linejoin="round" stroke-width="1"/>
                    <path id="Path_90" data-name="Path 90" d="M272.779,119.345s-4.962,2.685-7.519-2.359" transform="translate(-260.761 -99.993)" fill="none" stroke="#bf5665" stroke-linecap="round" stroke-linejoin="round" stroke-width="1"/>
                  </g>
                  <g id="Group_48" data-name="Group 48" transform="translate(0 2.379)">
                    <line id="Line_3" data-name="Line 3" x1="6.429" y1="1.584" transform="translate(0 3.698)" fill="none" stroke="#fff" stroke-miterlimit="10" stroke-width="1"/>
                    <path id="Path_91" data-name="Path 91" d="M289.007,106.819a5.889,5.889,0,1,1-5.889-5.889A5.889,5.889,0,0,1,289.007,106.819Z" transform="translate(-252.637 -100.93)" fill="none" stroke="#fff" stroke-miterlimit="10" stroke-width="1"/>
                    <circle id="Ellipse_2" data-name="Ellipse 2" cx="5.889" cy="5.889" r="5.889" transform="translate(6.429 0.325)" fill="none" stroke="#fff" stroke-miterlimit="10" stroke-width="1"/>
                    <path id="Path_92" data-name="Path 92" d="M269.391,104.489c2.67-1.438,5.258-1.664,7.715,0" transform="translate(-251.933 -101.145)" fill="none" stroke="#fff" stroke-miterlimit="10" stroke-width="1"/>
                  </g>
                </g>
              </g>
            </g>
            <g id="Group_62" data-name="Group 62" transform="translate(33.19 67.821)">
              <g id="Group_52" data-name="Group 52" transform="translate(92.271 63.665)">
                <path id="Path_93" data-name="Path 93" d="M332.64,211.743a2.763,2.763,0,0,1-1.736,4.194c-3.47,1.144-8.957.782-9.254-.9S332.64,211.743,332.64,211.743Z" transform="translate(-321.644 -211.743)" fill="#ef9c9c"/>
                <path id="Path_94" data-name="Path 94" d="M335.713,212.422a2.762,2.762,0,0,1-1.735,4.194c-3.471,1.143-8.958.782-9.255-.9S335.713,212.422,335.713,212.422Z" transform="translate(-321.92 -211.804)" fill="#ef9c9c"/>
                <path id="Path_95" data-name="Path 95" d="M339.869,212.415a2.763,2.763,0,0,1-1.736,4.194c-3.47,1.143-9.012.79-9.255-.9C328.6,213.8,339.914,211.972,339.869,212.415Z" transform="translate(-322.293 -211.797)" fill="#ef9c9c"/>
                <path id="Path_96" data-name="Path 96" d="M343.434,211.743a2.762,2.762,0,0,1-1.735,4.194c-3.47,1.144-8.958.782-9.255-.9S343.434,211.743,343.434,211.743Z" transform="translate(-322.613 -211.743)" fill="#fcbfa9"/>
              </g>
              <g id="Group_59" data-name="Group 59" transform="translate(43.261 21.925)">
                <g id="Group_55" data-name="Group 55" transform="translate(1.052)">
                  <g id="Group_53" data-name="Group 53">
                    <path id="Path_97" data-name="Path 97" d="M347.282,174.238a12.811,12.811,0,0,1-1.681,3.937,6.984,6.984,0,0,1,1.258,3.36,5.728,5.728,0,0,1,.012,1.01,6.809,6.809,0,0,1-1.8,4.066c-2.879,3.338-59.952,2.868-67.356,1.95a9.692,9.692,0,0,1-8.742-10.269,12.494,12.494,0,0,1,3.208-7.239c7.344-8.543,66.744-3.926,66.744-3.926C347.118,167.329,347.963,171.148,347.282,174.238Z" transform="translate(-268.952 -165.883)" fill="#d74c58"/>
                    <path id="Path_98" data-name="Path 98" d="M346.871,183.771a6.809,6.809,0,0,1-1.8,4.066c-2.879,3.338-59.952,2.868-67.356,1.95a9.692,9.692,0,0,1-8.742-10.269c1.41,3.066,13.5,6.476,20.475,6.6,4.636.08,11.732-1.134,14.7-1.127C321.8,185.03,340.142,186.908,346.871,183.771Z" transform="translate(-268.952 -167.108)" fill="#ce454f"/>
                    <path id="Path_99" data-name="Path 99" d="M348.082,178.763a6.984,6.984,0,0,1,1.258,3.36,7.3,7.3,0,0,0-2.962-1.022c-4.042-.576-32.551-1.051-41.5.851-4.334.922-7.316,2.557-8.08,1.252s.459-3.126,2.421-4.324c0,0-2.057-5.958-.318-6.4,2.186-.552,3.446,3.187,7.973,3.484,7.145.469,33.1,3.061,42.885-1.134A12.81,12.81,0,0,1,348.082,178.763Z" transform="translate(-271.433 -166.47)" fill="#ce454f"/>
                  </g>
                  <g id="Group_54" data-name="Group 54" transform="translate(28.023 9.808)">
                    <path id="Path_100" data-name="Path 100" d="M300.94,176.659s1.529,2.688,5.776,2.6,33.939.648,41.281,0" transform="translate(-299.849 -176.659)" fill="none" stroke="#ad2d37" stroke-linecap="round" stroke-linejoin="round" stroke-width="0.75"/>
                    <path id="Path_101" data-name="Path 101" d="M299.741,181.479a11.977,11.977,0,0,1,4.72-2.177" transform="translate(-299.741 -176.896)" fill="none" stroke="#ad2d37" stroke-linecap="round" stroke-linejoin="round" stroke-width="0.75"/>
                  </g>
                </g>
                <g id="Group_58" data-name="Group 58" transform="translate(0 20.226)">
                  <g id="Group_56" data-name="Group 56">
                    <path id="Path_102" data-name="Path 102" d="M346.126,196.461a12.786,12.786,0,0,1-1.68,3.936,6.983,6.983,0,0,1,1.257,3.361,5.7,5.7,0,0,1,.012,1.01,6.807,6.807,0,0,1-1.8,4.066c-2.879,3.338-59.952,2.867-67.356,1.951a9.694,9.694,0,0,1-8.743-10.27,12.5,12.5,0,0,1,3.208-7.239c7.344-8.543,66.745-3.925,66.745-3.925C345.962,189.552,346.808,193.371,346.126,196.461Z" transform="translate(-267.796 -188.106)" fill="#f4a378"/>
                    <path id="Path_103" data-name="Path 103" d="M345.715,205.994a6.807,6.807,0,0,1-1.8,4.066c-2.879,3.338-59.952,2.867-67.356,1.951a9.694,9.694,0,0,1-8.743-10.27c1.411,3.067,4.548,6.475,11.528,6.557C291.45,208.439,335.833,210.6,345.715,205.994Z" transform="translate(-267.796 -189.33)" fill="#ef9073"/>
                    <path id="Path_104" data-name="Path 104" d="M346.927,200.985a6.984,6.984,0,0,1,1.257,3.361,7.29,7.29,0,0,0-2.961-1.022c-4.042-.576-32.552-1.052-41.5.851-4.334.922-7.315,2.557-8.079,1.252s.458-3.126,2.42-4.325c0,0-2.056-5.957-.317-6.4,2.185-.552,3.445,3.187,7.973,3.484,7.145.469,33.1,3.061,42.884-1.134A12.786,12.786,0,0,1,346.927,200.985Z" transform="translate(-270.277 -188.693)" fill="#ef9073"/>
                  </g>
                  <g id="Group_57" data-name="Group 57" transform="translate(28.023 9.808)">
                    <path id="Path_105" data-name="Path 105" d="M299.784,198.882s1.529,2.688,5.777,2.6,33.938.649,41.28,0" transform="translate(-298.693 -198.882)" fill="none" stroke="#cc5a52" stroke-linecap="round" stroke-linejoin="round" stroke-width="0.75"/>
                    <path id="Path_106" data-name="Path 106" d="M298.585,203.7a11.977,11.977,0,0,1,4.721-2.177" transform="translate(-298.585 -199.119)" fill="none" stroke="#cc5a52" stroke-linecap="round" stroke-linejoin="round" stroke-width="0.75"/>
                  </g>
                </g>
              </g>
              <g id="Group_60" data-name="Group 60" transform="translate(38.9 55.565)">
                <path id="Path_107" data-name="Path 107" d="M285.773,214.151a1.612,1.612,0,0,1-.738,2.276s.82,1.466-1.475,2.2c0,0-.346,1.111-3.87,2.176-2.15.647-7.887.456-12.031.21-2.65-.156-4.654-.338-4.654-.338l.573-11.63a8.9,8.9,0,0,1,1.7-2.167,9.591,9.591,0,0,1,2.769-1.859c3.142-1.375,3.306-1.211,5.191-2.067s1.12,3.388-3.524,6.093a60.4,60.4,0,0,0,8.98,2.432c4.135.564,8.961-.866,9.125.519S285.773,214.151,285.773,214.151Z" transform="translate(-263.004 -202.844)" fill="#fcbfa9"/>
                <path id="Path_108" data-name="Path 108" d="M286.621,215.541a17.815,17.815,0,0,1-8.436.472" transform="translate(-264.368 -203.984)" fill="none" stroke="#ef9c9c" stroke-linecap="round" stroke-linejoin="round" stroke-width="0.75"/>
                <path id="Path_109" data-name="Path 109" d="M285.707,217.844a16.348,16.348,0,0,1-8.436.725" transform="translate(-264.286 -204.191)" fill="none" stroke="#ef9c9c" stroke-linecap="round" stroke-linejoin="round" stroke-width="0.75"/>
                <path id="Path_110" data-name="Path 110" d="M284,220.327a17.6,17.6,0,0,1-8.436.725" transform="translate(-264.132 -204.414)" fill="none" stroke="#ef9c9c" stroke-linecap="round" stroke-linejoin="round" stroke-width="0.75"/>
                <path id="Path_111" data-name="Path 111" d="M267.658,221.417c-2.65-.156-4.654-.338-4.654-.338l.573-11.63a8.906,8.906,0,0,1,1.7-2.167Z" transform="translate(-263.004 -203.242)" fill="#ef9c9c"/>
              </g>
              <g id="Group_61" data-name="Group 61">
                <path id="Path_112" data-name="Path 112" d="M235.974,146.913l-2.576-5.119s-5.268,1.1-8.357,7.9-7.1,57.636-3.088,63.323,39.278,4.309,39.278,4.309V199.6s-20.379-1.664-21.18-2.952c-.543-.874.248-28.317.248-28.317Z" transform="translate(-220.265 -141.794)" fill="#f7f2ed"/>
                <path id="Path_113" data-name="Path 113" d="M240.344,202.422a10.173,10.173,0,0,0-8.15,6.124" transform="translate(-221.337 -147.241)" fill="none" stroke="#e5ddd8" stroke-linecap="round" stroke-linejoin="round" stroke-width="1"/>
                <path id="Path_114" data-name="Path 114" d="M238.053,201.314a16.272,16.272,0,0,0-10.623,2.735" transform="translate(-220.909 -147.135)" fill="none" stroke="#e5ddd8" stroke-linecap="round" stroke-linejoin="round" stroke-width="1"/>
                <path id="Path_115" data-name="Path 115" d="M235.973,149.343c2.568,5.521,4.949,12.446,5.5,18.509" transform="translate(-221.676 -142.472)" fill="none" stroke="#e5ddd8" stroke-linecap="round" stroke-linejoin="round" stroke-width="1"/>
              </g>
            </g>
          </g>
          <g id="Group_94" data-name="Group 94" transform="translate(161.274)">
            <g id="Group_70" data-name="Group 70" transform="translate(110.616)">
              <path id="Path_116" data-name="Path 116" d="M532.746,96.738c0,3.391,3.016,10.055-5.383,10.757-8.916.745-10.638-5.212-10.638-8.6s8.281-5.933,10.638-5.933C533.2,92.959,532.746,93.347,532.746,96.738Z" transform="translate(-485.599 -54.669)" fill="#40294d"/>
              <g id="Group_64" data-name="Group 64" transform="translate(18.32 43.267)">
                <path id="Path_117" data-name="Path 117" d="M532.027,118.644s-11.009,21.278-18.524,20.165-10.848-15.447-10.848-15.447,3.582-.637,3.8-6.864a28.729,28.729,0,0,0-1.194-8.372l19.587-9.7a44.373,44.373,0,0,0-.242,5C524.636,109.107,525.742,117.713,532.027,118.644Z" transform="translate(-502.655 -98.427)" fill="#fcbfa9"/>
                <path id="Path_118" data-name="Path 118" d="M525.107,98.427a44.409,44.409,0,0,0-.242,5c-2.966,4.959-10.056,14.92-18.15,13.067a28.728,28.728,0,0,0-1.194-8.372Z" transform="translate(-502.912 -98.427)" fill="#ef9c9c"/>
              </g>
              <g id="Group_69" data-name="Group 69">
                <path id="Path_119" data-name="Path 119" d="M495.274,95.329c-.412,2.8-3.591,4.64-7.1,4.122s-6.016-3.2-5.6-6,3.591-4.64,7.1-4.122S495.687,92.535,495.274,95.329Z" transform="translate(-482.526 -54.335)" fill="#ef9c9c"/>
                <path id="Path_120" data-name="Path 120" d="M492.664,65.529s-7.52-.748-8.251,7.921c-1.186,14.046,4.666,17.968,4.666,17.968Z" transform="translate(-482.681 -52.203)" fill="#40294d"/>
                <g id="Group_65" data-name="Group 65" transform="translate(4.685 10.391)">
                  <path id="Path_121" data-name="Path 121" d="M527.685,83.99c.835,12.7-10.869,23.815-22.351,24.57s-16.625-9.25-17.461-21.952a57.264,57.264,0,0,1,.249-12.283,22.139,22.139,0,0,1,.755-3.368c2.462-7.891,8.549-8.086,16.509-8.609C516.867,61.593,526.849,71.287,527.685,83.99Z" transform="translate(-487.674 -62.307)" fill="#fcbfa9"/>
                  <path id="Path_122" data-name="Path 122" d="M524.884,89.165s-10.716-4.353-12.842-14.908c0,0-16.176,5.5-23.875.167a22.124,22.124,0,0,1,.755-3.368c3.9-3.39,12.273-5.357,19.537-7.648l13.118,7.381Z" transform="translate(-487.718 -62.406)" fill="#ef9c9c"/>
                </g>
                <g id="Group_67" data-name="Group 67">
                  <path id="Path_123" data-name="Path 123" d="M535.508,69.652c.789,9.443-2.069,17.226-4.794,18.4-5.877,2.523-10.13-2.925-13.372-10.594s-1.014-15.422,1.63-17.178C526.459,55.3,534.815,61.354,535.508,69.652Z" transform="translate(-485.509 -51.571)" fill="#40294d"/>
                  <g id="Group_66" data-name="Group 66">
                    <path id="Path_124" data-name="Path 124" d="M503.058,72.424c-7.194,1.205-13.81-.041-17.46-2.886a8.675,8.675,0,0,1-1.3-1.238c1.093-14.35,26.592-14.43,31.954-14.333a7.478,7.478,0,0,1,3.593,4.936C520.808,64.642,513.292,70.7,503.058,72.424Z" transform="translate(-482.685 -51.165)" fill="#40294d"/>
                    <path id="Path_125" data-name="Path 125" d="M516.091,53.691c-5.362-.1-30.861-.016-31.954,14.333a6.363,6.363,0,0,1-1.527-3.152c-.965-5.747,6.543-11.8,16.784-13.52C506.107,50.219,512.337,51.231,516.091,53.691Z" transform="translate(-482.526 -50.89)" fill="#553a60"/>
                  </g>
                </g>
                <g id="Group_68" data-name="Group 68" transform="translate(5.96 28.341)">
                  <path id="Path_126" data-name="Path 126" d="M512.154,91.508a1.251,1.251,0,1,1-1.33-1.341A1.342,1.342,0,0,1,512.154,91.508Z" transform="translate(-490.926 -82.76)" fill="#434851"/>
                  <path id="Path_127" data-name="Path 127" d="M495.8,92.221a1.251,1.251,0,1,1-1.331-1.341A1.342,1.342,0,0,1,495.8,92.221Z" transform="translate(-489.457 -82.824)" fill="#434851"/>
                  <path id="Path_128" data-name="Path 128" d="M508.338,83.308c1.443-1.627,5.385-1.782,6.779,0" transform="translate(-490.806 -82.029)" fill="none" stroke="#40294d" stroke-linecap="round" stroke-linejoin="round" stroke-width="1"/>
                  <path id="Path_129" data-name="Path 129" d="M489.075,84.037a4.612,4.612,0,0,1,6.35-.137" transform="translate(-489.075 -82.089)" fill="none" stroke="#40294d" stroke-linecap="round" stroke-linejoin="round" stroke-width="1"/>
                  <path id="Path_130" data-name="Path 130" d="M499.939,90.423s-.532,5.221,1.128,8.221" transform="translate(-490.044 -82.783)" fill="none" stroke="#bf5665" stroke-linecap="round" stroke-linejoin="round" stroke-width="1"/>
                  <path id="Path_131" data-name="Path 131" d="M503.236,103.433a10.851,10.851,0,0,0,8.033-4.627" transform="translate(-490.347 -83.536)" fill="none" stroke="#bf5665" stroke-linecap="round" stroke-linejoin="round" stroke-width="1"/>
                </g>
                <ellipse id="Ellipse_3" data-name="Ellipse 3" cx="6.42" cy="5.115" rx="6.42" ry="5.115" transform="translate(37.094 35.502) rotate(-24.346)" fill="#fcbfa9"/>
              </g>
            </g>
            <g id="Group_79" data-name="Group 79" transform="translate(95.823 143.661)">
              <g id="Group_73" data-name="Group 73" transform="translate(18.236 0)">
                <path id="Path_132" data-name="Path 132" d="M555.073,388.267l-21.317.648L523.272,260.529,508.982,388.915l-22.674-.648,8.4-165.822.129-8.344,56.922-3.883.072,3.73Z" transform="translate(-486.309 -208.864)" fill="#d74c59"/>
                <path id="Path_133" data-name="Path 133" d="M525.723,264.253l-1.409-10.581-8.466-1.994L513.59,373.257Z" transform="translate(-488.76 -212.589)" fill="#c44141"/>
                <path id="Path_134" data-name="Path 134" d="M552.662,213.948l-57.123,8.5.129-8.344,56.922-3.883Z" transform="translate(-487.138 -208.864)" fill="#c44141"/>
                <g id="Group_72" data-name="Group 72" transform="translate(0.737)">
                  <g id="Group_71" data-name="Group 71" transform="translate(46.91)">
                    <line id="Line_4" data-name="Line 4" x2="3.945" y2="176.205" transform="translate(14.59)" fill="none" stroke="#aa333f" stroke-linecap="round" stroke-linejoin="round" stroke-width="1"/>
                    <path id="Path_135" data-name="Path 135" d="M549.83,209.677s-.972,16.923,4.417,16.923" transform="translate(-539.657 -208.815)" fill="none" stroke="#aa333f" stroke-linecap="round" stroke-linejoin="round" stroke-width="1"/>
                    <line id="Line_5" data-name="Line 5" y1="0.889" x2="20.516" transform="translate(0 176.205)" fill="none" stroke="#aa333f" stroke-linecap="round" stroke-linejoin="round" stroke-width="1"/>
                  </g>
                  <line id="Line_6" data-name="Line 6" x2="21.83" y2="0.889" transform="translate(0 176.205)" fill="none" stroke="#aa333f" stroke-linecap="round" stroke-linejoin="round" stroke-width="1"/>
                </g>
                <path id="Path_136" data-name="Path 136" d="M520.255,210.218s.515,24,2.221,38.292" transform="translate(-489.358 -208.864)" fill="none" stroke="#aa333f" stroke-linecap="round" stroke-linejoin="round" stroke-width="1"/>
                <path id="Path_137" data-name="Path 137" d="M524.4,212.215c0,.46,4.17,19.66-3.208,19.553" transform="translate(-489.442 -209.043)" fill="none" stroke="#aa333f" stroke-linecap="round" stroke-linejoin="round" stroke-width="1"/>
              </g>
              <g id="Group_78" data-name="Group 78" transform="translate(0 179.308)">
                <g id="Group_75" data-name="Group 75">
                  <path id="Path_138" data-name="Path 138" d="M508.189,420.789l-41.911-.028a9.755,9.755,0,0,1,.346-2.929c2.562-9.13,18.119-12.1,18.119-12.1l22.44.743.805,11.408Z" transform="translate(-466.273 -405.737)" fill="#42284c"/>
                  <path id="Path_139" data-name="Path 139" d="M508.189,421.983a173.562,173.562,0,0,1-41.911-.028,9.755,9.755,0,0,1,.346-2.929,291.493,291.493,0,0,0,41.364.056Z" transform="translate(-466.273 -406.931)" fill="#89798e"/>
                  <g id="Group_74" data-name="Group 74" transform="translate(10.956 0.37)">
                    <path id="Path_140" data-name="Path 140" d="M478.31,408.79a24.315,24.315,0,0,1,1.152,3.6" transform="translate(-478.31 -406.382)" fill="none" stroke="#89798e" stroke-linecap="round" stroke-linejoin="round" stroke-width="3"/>
                    <path id="Path_141" data-name="Path 141" d="M482.052,407.126a24.266,24.266,0,0,1,1.152,3.6" transform="translate(-478.646 -406.232)" fill="none" stroke="#89798e" stroke-linecap="round" stroke-linejoin="round" stroke-width="3"/>
                    <path id="Path_142" data-name="Path 142" d="M485.852,406.144a24.27,24.27,0,0,1,1.153,3.6" transform="translate(-478.988 -406.144)" fill="none" stroke="#89798e" stroke-linecap="round" stroke-linejoin="round" stroke-width="3"/>
                  </g>
                </g>
                <g id="Group_77" data-name="Group 77" transform="translate(64.676)">
                  <path id="Path_143" data-name="Path 143" d="M537.333,420.789l41.912-.028a9.755,9.755,0,0,0-.347-2.929c-2.562-9.13-18.119-12.1-18.119-12.1l-22.44.743-.8,11.408Z" transform="translate(-537.333 -405.737)" fill="#42284c"/>
                  <path id="Path_144" data-name="Path 144" d="M537.333,421.983c14.981,1.377,29.382,1.957,41.912-.028a9.755,9.755,0,0,0-.347-2.929c-10.632.977-25.332.719-41.363.056Z" transform="translate(-537.333 -406.931)" fill="#89798e"/>
                  <g id="Group_76" data-name="Group 76" transform="translate(22.943 0.37)">
                    <path id="Path_145" data-name="Path 145" d="M571.236,408.79a24.2,24.2,0,0,0-1.153,3.6" transform="translate(-563.219 -406.382)" fill="none" stroke="#89798e" stroke-linecap="round" stroke-linejoin="round" stroke-width="3"/>
                    <path id="Path_146" data-name="Path 146" d="M567.493,407.126a24.288,24.288,0,0,0-1.152,3.6" transform="translate(-562.882 -406.232)" fill="none" stroke="#89798e" stroke-linecap="round" stroke-linejoin="round" stroke-width="3"/>
                    <path id="Path_147" data-name="Path 147" d="M563.693,406.144a24.267,24.267,0,0,0-1.152,3.6" transform="translate(-562.541 -406.144)" fill="none" stroke="#89798e" stroke-linecap="round" stroke-linejoin="round" stroke-width="3"/>
                  </g>
                </g>
              </g>
            </g>
            <g id="Group_80" data-name="Group 80" transform="translate(102.759 62.371)">
              <path id="Path_148" data-name="Path 148" d="M500.6,140.738c-.881-.1-11.31-10.572-11.31-10.572s-5.76,1.845-15.4,24.585l7.859,16.265Z" transform="translate(-473.893 -120.383)" fill="#573a60"/>
              <path id="Path_149" data-name="Path 149" d="M503.4,123.509c-1.6,6.458.118,11.636,6.353,15.08,7.959-3.919,13.644-11,18.552-19.172,0,0,17.1,1.356,19.91,7.815,2.927,6.723,4.334,76.553,4.334,76.553l-58.117,3.7s-10.061-64.76-7.784-72.961S503.4,123.509,503.4,123.509Z" transform="translate(-475.008 -119.417)" fill="#42284c"/>
            </g>
            <path id="Path_150" data-name="Path 150" d="M475.383,164.375s.016.257.034.735c-.83-.471-1.31-.735-1.31-.735Z" transform="translate(-371.154 -61.085)" fill="#52767f"/>
            <g id="Group_93" data-name="Group 93" transform="translate(0 66.048)">
              <g id="Group_88" data-name="Group 88" transform="translate(0 8.528)">
                <g id="Group_82" data-name="Group 82" transform="translate(0 10.4)">
                  <path id="Path_151" data-name="Path 151" d="M363.338,228.257s-1.081,9.733,1.391,10.815,13.287,4.324,17.767,2.163,4.944-11.79,4.944-11.79Z" transform="translate(-361.181 -151.799)" fill="#446472"/>
                  <path id="Path_152" data-name="Path 152" d="M409.579,162.068c0-1.138-4.74-17.816-4.74-17.816s-20.992,11.038-25.945,19.042c-9.692,15.66-23.9,53.3-15.185,60.913s20.42,6.283,23.884,2.716,4.549-28.84,12.51-36.042S409.579,162.068,409.579,162.068Z" transform="translate(-360.992 -144.252)" fill="#52767f"/>
                  <g id="Group_81" data-name="Group 81" transform="translate(19.167 35.337)">
                    <path id="Path_153" data-name="Path 153" d="M394.738,194.6a49.19,49.19,0,0,1-9.059-11.524" transform="translate(-382.377 -183.077)" fill="none" stroke="#446472" stroke-linecap="round" stroke-linejoin="round" stroke-width="1"/>
                    <path id="Path_154" data-name="Path 154" d="M395.105,200.355a20.912,20.912,0,0,1-13.054-2.53" transform="translate(-382.051 -184.402)" fill="none" stroke="#446472" stroke-linecap="round" stroke-linejoin="round" stroke-width="1"/>
                  </g>
                </g>
                <g id="Group_83" data-name="Group 83" transform="translate(29.222 4.309)">
                  <path id="Path_155" data-name="Path 155" d="M397.82,234.814s-2.275,11.4,0,12.666,13.487,4.55,32.649,4.3,36.37-2.138,42.161-5.56c2.154-1.272-.694-14.118-.694-14.118Z" transform="translate(-393.431 -146.053)" fill="#446472"/>
                  <path id="Path_156" data-name="Path 156" d="M473.8,228.545c-5.452,7.694-66.982,13.18-78.057,0-.779-.925-1.361-2.893-1.78-5.64-2.645-17.391,1.318-65.612,4.853-71.971,8.525-15.329,64.1-19.66,69.934-1.318.865,2.7,2.191,10.527,3.458,20.293C475.037,191.742,477.563,223.23,473.8,228.545Z" transform="translate(-393.098 -137.561)" fill="#5c8088"/>
                  <path id="Path_157" data-name="Path 157" d="M473.882,231.371c-5.452,7.694-66.982,13.18-78.056,0-.779-.925-1.361-2.893-1.78-5.64,50.786,20.11,70.19-12.163,69.487-35.6l3.187,1.013s-.918-19.988-.986-22.136c1.386.787,3.765,2.132,6.556,3.723C475.122,194.567,477.648,226.055,473.882,231.371Z" transform="translate(-393.183 -140.386)" fill="#52767f"/>
                </g>
                <g id="Group_87" data-name="Group 87" transform="translate(34.84)">
                  <path id="Path_158" data-name="Path 158" d="M499.385,238.657s1.838,8.452,4.776,8.084,14.473-5.512,14.769-7.35-.82-12.608-.82-12.608Z" transform="translate(-408.265 -141.267)" fill="#446472"/>
                  <path id="Path_159" data-name="Path 159" d="M459.775,156.918l6.607-15.137s26.276,14.93,34.476,27.165,17.594,50.1,14.959,55.039-15.2,11.728-20.842,8.753-8.814-34.119-13.287-37.152S461.291,179.664,459.775,156.918Z" transform="translate(-404.707 -133.63)" fill="#5c8088"/>
                  <g id="Group_85" data-name="Group 85">
                    <g id="Group_84" data-name="Group 84" transform="translate(3.099)">
                      <path id="Path_160" data-name="Path 160" d="M462.418,141.522s-12.042,9.483-40,11.032c-5.888.326-15.209-.111-18.76-4.99-.993-1.361-1.088-3.578-.9-5.6a24.963,24.963,0,0,1,.445-2.927c.822-4.006,7.951-6.214,27.542-6.214,15.389,0,24.94,4.425,29.152,6.967A19.278,19.278,0,0,1,462.418,141.522Z" transform="translate(-402.675 -132.826)" fill="#6b9699"/>
                      <path id="Path_161" data-name="Path 161" d="M462.418,142.209s-12.042,9.483-40,11.032c-5.888.326-15.209-.111-18.76-4.99-.993-1.361-1.088-3.578-.9-5.6,5.572,1.25,24.462,4.28,57.139-2.173A19.276,19.276,0,0,1,462.418,142.209Z" transform="translate(-402.675 -133.514)" fill="#618b91"/>
                    </g>
                    <path id="Path_162" data-name="Path 162" d="M462.11,142.379s-44.258,10.241-59.736,3.318c0,0-4.7,1.423-2.533,8.316s13.288,19.2,30.027,18.021S462.11,142.379,462.11,142.379Z" transform="translate(-399.271 -133.684)" fill="#6b9699"/>
                  </g>
                  <g id="Group_86" data-name="Group 86" transform="translate(50.945 28.715)">
                    <path id="Path_163" data-name="Path 163" d="M484.783,197.827a16.506,16.506,0,0,1,6.7-12.873" transform="translate(-457.898 -166.224)" fill="none" stroke="#446472" stroke-linecap="round" stroke-linejoin="round" stroke-width="1"/>
                    <path id="Path_164" data-name="Path 164" d="M462.518,164.375c.514,12.76,5.8,21,14.331,29.011" transform="translate(-455.897 -164.375)" fill="none" stroke="#446472" stroke-linecap="round" stroke-linejoin="round" stroke-width="1"/>
                    <path id="Path_165" data-name="Path 165" d="M455.244,181.57a36.568,36.568,0,0,0,16.974,10.705" transform="translate(-455.244 -165.92)" fill="none" stroke="#446472" stroke-linecap="round" stroke-linejoin="round" stroke-width="1"/>
                    <path id="Path_166" data-name="Path 166" d="M487.82,199.15a23.69,23.69,0,0,1,7.288-4.643,7.054,7.054,0,0,1,2.778-.641,2.977,2.977,0,0,1,2.46,1.242,3.048,3.048,0,0,1-.755,3.691,7.567,7.567,0,0,1-3.709,1.593,13.8,13.8,0,0,0-3.911,1.136" transform="translate(-458.171 -167.024)" fill="none" stroke="#446472" stroke-linecap="round" stroke-linejoin="round" stroke-width="1"/>
                  </g>
                </g>
              </g>
              <path id="Path_167" data-name="Path 167" d="M503.064,158.594c-3.348-4.6-8.658-6.784-10.866-6.781-1.621,0-6.761,1.132-9.032,3.318-2.773,2.669-4.5,6.631-3.493,7.394,1.795,1.355,3.55-1.347,5.719-3.136,2.736-2.256,4.155-2.2,4.155-2.2a17.122,17.122,0,0,0-3.774,2.661c-2.332,2.135-4.209,6.267-3.623,7.154,1.606,2.437,3.7-1.849,6.387-3.493a18.857,18.857,0,0,1,5.4-2.2,14.154,14.154,0,0,0-4.681,2.764c-2.243,2.1-3.3,5.568-2.288,6.3.916.665,2.881-1.778,5.032-3.282a14.793,14.793,0,0,1,4-2.111,12.209,12.209,0,0,0-3.645,2.75c-1.684,1.8-2.5,4.117-1.839,4.9s2.693-.944,4.639-2.262a4.823,4.823,0,0,1,3.619-1.058s3.386,3.1,6.043,1.656C508.416,169,506.632,163.491,503.064,158.594Z" transform="translate(-371.628 -126.004)" fill="#fcbfa9"/>
              <g id="Group_91" data-name="Group 91" transform="translate(10.062 24.359)">
                <g id="Group_89" data-name="Group 89">
                  <path id="Path_168" data-name="Path 168" d="M382.235,163.83s-8.071-4.247-10.053-.206c-1.207,2.461,5.949,14.095,8.626,13.387s-2.169-10.605-2.169-10.605Z" transform="translate(-372.047 -151.267)" fill="#fcbfa9"/>
                  <path id="Path_169" data-name="Path 169" d="M385.418,159.306s-8.071-4.247-10.053-.206c-1.207,2.461,5.949,14.095,8.626,13.387s-2.169-10.605-2.169-10.605Z" transform="translate(-372.333 -150.861)" fill="#fcbfa9"/>
                  <path id="Path_170" data-name="Path 170" d="M389.65,154.935s-8.071-4.247-10.053-.206c-1.207,2.461,5.949,14.095,8.625,13.387s-2.168-10.605-2.168-10.605Z" transform="translate(-372.713 -150.468)" fill="#fcbfa9"/>
                  <path id="Path_171" data-name="Path 171" d="M394.722,152.038s-7.953-4.071-9.935-.029c-1.207,2.461,5.949,14.095,8.626,13.386s-2.169-10.6-2.169-10.6A25.428,25.428,0,0,1,394.722,152.038Z" transform="translate(-373.179 -150.219)" fill="#fcbfa9"/>
                </g>
                <g id="Group_90" data-name="Group 90" transform="translate(3.376 3.24)">
                  <path id="Path_172" data-name="Path 172" d="M385.059,153.779a21.58,21.58,0,0,0,2.609,6.188" transform="translate(-376.592 -153.779)" fill="none" stroke="#bf5665" stroke-linecap="round" stroke-linejoin="round" stroke-width="0.75"/>
                  <path id="Path_173" data-name="Path 173" d="M379.946,157.661a19.878,19.878,0,0,0,3.19,6.206" transform="translate(-376.132 -154.128)" fill="none" stroke="#bf5665" stroke-linecap="round" stroke-linejoin="round" stroke-width="0.75"/>
                  <path id="Path_174" data-name="Path 174" d="M375.756,162.421a27.92,27.92,0,0,0,4.949,8.334" transform="translate(-375.756 -154.555)" fill="none" stroke="#bf5665" stroke-linecap="round" stroke-linejoin="round" stroke-width="0.75"/>
                </g>
              </g>
              <g id="Group_92" data-name="Group 92" transform="translate(130.719)">
                <path id="Path_175" data-name="Path 175" d="M545.7,168.086s-.924,2.85-2.447,6.684c-3.09,7.8-8.67,19.642-14.011,19.771-7.959.188-24.2-22.723-24.2-22.723l-.428-7.583.325-5.52,18.975,14.867,4.879-11.717.453-1.095Z" transform="translate(-504.613 -126.624)" fill="#fcbfa9"/>
                <path id="Path_176" data-name="Path 176" d="M548.09,168.289s-.924,2.85-2.447,6.684l-14.464-12.907.453-1.095Z" transform="translate(-507 -126.827)" fill="#ef9c9c"/>
                <path id="Path_177" data-name="Path 177" d="M530.015,156.951l20.551,13.338s6.97-19.184,7.134-25.3-.991-17.465-9.715-21.257S530.015,156.951,530.015,156.951Z" transform="translate(-506.895 -123.457)" fill="#573a60"/>
              </g>
            </g>
          </g>
          <g id="Group_100" data-name="Group 100" transform="translate(49.154 219.107)">
            <g id="Group_95" data-name="Group 95" transform="translate(17.445)">
              <path id="Path_178" data-name="Path 178" d="M486.354,296.53l-113.03-4.906L256.973,296.53l121.145,30.888Z" transform="translate(-256.973 -291.624)" fill="#d16961"/>
              <path id="Path_179" data-name="Path 179" d="M355.347,298.952s28.749-3.7,36.539-3.443,52.189,5.83,52.189,5.83l-64.458,10.5Z" transform="translate(-265.81 -291.972)" fill="#573a60"/>
              <path id="Path_180" data-name="Path 180" d="M287.345,301.373s49.738-4.942,60.157-4.363,37.693,4.074,38.271,8.415-67.146,9.262-67.146,9.262Z" transform="translate(-259.701 -292.103)" fill="#5c8088"/>
            </g>
            <g id="Group_99" data-name="Group 99" transform="translate(0 4.906)">
              <g id="Group_96" data-name="Group 96" transform="translate(99.048)">
                <path id="Path_181" data-name="Path 181" d="M506.31,297.014l24.146,49.141H479.106Z" transform="translate(-358.531 -297.014)" fill="#d16961"/>
                <path id="Path_182" data-name="Path 182" d="M494.739,421.729,346.63,431.211v-129l147.779-5.193Z" transform="translate(-346.63 -297.014)" fill="#f4a279"/>
              </g>
              <g id="Group_97" data-name="Group 97">
                <path id="Path_183" data-name="Path 183" d="M338.576,431.211,257.407,416.42l-.434-119.406,81.6,5.193Z" transform="translate(-239.527 -297.014)" fill="#ea8e6e"/>
                <path id="Path_184" data-name="Path 184" d="M336.852,302.21l-16.281,50.106-82.765-8.944,1.66-4.415.009-.018,15.778-41.921,74.793,4.759Z" transform="translate(-237.805 -297.014)" fill="#f4a279"/>
                <path id="Path_185" data-name="Path 185" d="M330.209,301.777,258.423,303.8l-18.785,35.136,15.778-41.921Z" transform="translate(-237.97 -297.014)" fill="#f7bd8d"/>
              </g>
              <g id="Group_98" data-name="Group 98" transform="translate(118.286 57.44)">
                <path id="Path_186" data-name="Path 186" d="M367.767,365.66v34.106L485.7,390.972l-.808-30.849Z" transform="translate(-367.767 -360.123)" fill="#f7f2ed"/>
                <text id="DONATION-2" data-name="DONATION" transform="matrix(0.998, -0.07, 0.07, 0.998, 11.449, 27.502)" fill="#42284c" font-size="16" font-family="Montserrat-Medium, Montserrat" font-weight="500"><tspan x="0" y="0">DONATION</tspan></text>
              </g>
            </g>
          </g>
        </g>
      </g>
    </g>
    <text id="Welcome" transform="translate(20 161)" fill="#fff" font-size="30" font-family="ScriptMTBold, Script MT"><tspan x="0" y="0">Welcome</tspan></text>
    <text id="A_solution_to_give_a_second_life_to_your_unused_items_" data-name="A solution to give a second life to 
your unused items!" transform="translate(21 197)" fill="#fff" font-size="23" font-family="MonotypeCorsiva, Monotype Corsiva"><tspan x="0" y="0">A solution to give a second life to </tspan><tspan x="0" y="23">your unused items!</tspan></text>
    <g id="Group_106" data-name="Group 106" transform="translate(-262.93 -542.474)">
      <text id="ahay" transform="translate(304.17 622.576)" fill="#fbbc04" stroke="#fbbc04" stroke-width="1" font-size="29" font-family="InkFree, Ink Free"><tspan x="0" y="0">ahay</tspan></text>
      <g id="Group_6" data-name="Group 6" transform="translate(282.93 587.474)">
        <path id="Path_11" data-name="Path 11" d="M132.468,244.832a1.921,1.921,0,0,1,1.543-.385c.108.025.28.066.312.154.067.184-.528.443-1.088.647Z" transform="translate(-122.623 -225.455)" fill="#fbbc04" stroke="#fbbc04" stroke-width="0.2"/>
        <path id="Path_12" data-name="Path 12" d="M135.158,246.131a2.823,2.823,0,0,1,2.007-.417c.073.027.185.069.2.137.055.2-.73.425-1.388.583Z" transform="translate(-124.308 -226.227)" fill="#fbbc04" stroke="#fbbc04" stroke-width="0.2"/>
        <path id="Path_13" data-name="Path 13" d="M138.1,247.31a4.332,4.332,0,0,0,1.981.156c.1-.051.333-.165.317-.351a.26.26,0,0,0-.04-.115C140.282,246.889,139.94,246.753,138.1,247.31Z" transform="translate(-126.152 -227.017)" fill="#fbbc04" stroke="#fbbc04" stroke-width="0.2"/>
        <path id="Path_15" data-name="Path 15" d="M152.346,261.66a1.923,1.923,0,0,1-1.267-.962c-.048-.1-.124-.26-.076-.34.1-.167.676.134,1.186.443Z" transform="translate(-134.219 -235.414)" fill="#fbbc04" stroke="#fbbc04" stroke-width="0.2"/>
        <path id="Path_16" data-name="Path 16" d="M151.316,258.291c-.249-.1-1.327-.55-1.582-1.3-.025-.073-.062-.188-.021-.245.12-.167.789.3,1.324.716Z" transform="translate(-133.41 -233.158)" fill="#fbbc04" stroke="#fbbc04" stroke-width="0.2"/>
        <path id="Path_17" data-name="Path 17" d="M150.216,255.1c-.06-.136-.63-1.415-1.12-1.642-.1-.048-.337-.156-.472-.027a.268.268,0,0,0-.065.1C148.523,253.66,148.631,254.013,150.216,255.1Z" transform="translate(-132.695 -231.065)" fill="#fbbc04" stroke="#fbbc04" stroke-width="0.2"/>
        <g id="Group_5" data-name="Group 5" transform="translate(0)">
          <path id="Path_10" data-name="Path 10" d="M124.1,196.811a11.54,11.54,0,0,0-8.863-3.013,10.588,10.588,0,0,0-8.511,6.63c-1.926,5.158,1.23,10.2,4.047,12.478a13.593,13.593,0,0,0,6.664,2.716,16.356,16.356,0,0,0,1.762.021c1.122-.029,2.222-.065,2.243-.428a.334.334,0,0,0-.084-.2c-.359-.494-1.328-.323-2.515-.492a9.117,9.117,0,0,1-2.176-.652c-1.175-.526-2.662-1.557-2.556-2.062.133-.632,2.649.068,3.026-.936a.611.611,0,0,0-.057-.6c-.2-.2-.572-.026-1.082.039-1.061.135-1.443-.344-2.882-.395a6.515,6.515,0,0,0-1.251.077,8.053,8.053,0,0,1-.752-.595,9.093,9.093,0,0,1-.855-.895,8.411,8.411,0,0,1-1.829-7.157,9.319,9.319,0,0,1,7.52-7.067C120.321,193.557,124.09,196.838,124.1,196.811Z" transform="translate(-106.138 -193.72)" fill="#fbbc04" stroke="#fbbc04" stroke-width="0.2"/>
          <path id="Path_14" data-name="Path 14" d="M107.5,262.533a9.627,9.627,0,0,0,2.625,5.155,10.707,10.707,0,0,0,10.914,1.974c4.961-1.869,7.175-7.1,7.191-10.971a13.6,13.6,0,0,0-2.058-6.9,16.262,16.262,0,0,0-1.088-1.386c-.725-.857-1.442-1.692-1.738-1.48a.334.334,0,0,0-.107.194c-.16.59.58,1.238,1.192,2.269a9.116,9.116,0,0,1,.854,2.105c.326,1.246.454,3.051-.006,3.284-.576.292-1.607-2.108-2.625-1.772-.161.053-.413.2-.435.422-.028.277.338.462.708.819.77.743.636,1.34,1.5,2.494a6.519,6.519,0,0,0,.843.927,8.052,8.052,0,0,1,.008.959h0s-.05.63-.162,1.227a10.707,10.707,0,0,1-1.959,4.351,9.29,9.29,0,0,1-5.775,3.15,8.665,8.665,0,0,1-9.88-6.825Z" transform="translate(-106.988 -228.266)" fill="#fbbc04" stroke="#fbbc04" stroke-width="0.2"/>
        </g>
      </g>
    </g>
  </g>
</svg>
